<svg height="32" width="32" xmlns="http://www.w3.org/2000/svg" overflow="visible"><circle cx="16" cy="16" r="16" fill="#5fccff"/><path d="M24 12.4c-.1 1.6-1.2 3.7-3.3 6.4-2.2 2.8-4 4.2-5.5 4.2-.9 0-1.7-.9-2.4-2.6-.4-1.6-.9-3.2-1.3-4.7-.5-1.7-1-2.6-1.5-2.6-.1 0-.5.3-1.3.8l-.8-1c.8-.7 1.6-1.4 2.3-2.1 1.1-.9 1.8-1.4 2.4-1.4 1.2-.1 2 .7 2.3 2.5.3 2 .5 3.2.6 3.7.4 1.6.8 2.4 1.2 2.4.3 0 .8-.5 1.5-1.6s1-1.9 1.1-2.4c.1-.9-.3-1.4-1.1-1.4-.4 0-.8.1-1.2.3.8-2.6 2.3-3.8 4.5-3.7 1.8 0 2.6 1.1 2.5 3.2" fill="#fff"/></svg>